<svg id="visual" viewBox="0 0 900 225" width="900" height="225" xmlns="http://www.w3.org/2000/svg" xmlns:xlink="http://www.w3.org/1999/xlink" version="1.1"><rect x="0" y="0" width="900" height="225" fill="#ffffff"></rect><defs><linearGradient id="grad1_0" x1="75%" y1="100%" x2="100%" y2="0%"><stop offset="-30%" stop-color="#3ce866" stop-opacity="1"></stop><stop offset="130%" stop-color="#3ce866" stop-opacity="1"></stop></linearGradient></defs><defs><linearGradient id="grad1_1" x1="75%" y1="100%" x2="100%" y2="0%"><stop offset="-30%" stop-color="#3ce866" stop-opacity="1"></stop><stop offset="130%" stop-color="#aff6b3" stop-opacity="1"></stop></linearGradient></defs><defs><linearGradient id="grad1_2" x1="75%" y1="100%" x2="100%" y2="0%"><stop offset="-30%" stop-color="#ffffff" stop-opacity="1"></stop><stop offset="130%" stop-color="#aff6b3" stop-opacity="1"></stop></linearGradient></defs><defs><linearGradient id="grad2_0" x1="0%" y1="100%" x2="25%" y2="0%"><stop offset="-30%" stop-color="#3ce866" stop-opacity="1"></stop><stop offset="130%" stop-color="#3ce866" stop-opacity="1"></stop></linearGradient></defs><defs><linearGradient id="grad2_1" x1="0%" y1="100%" x2="25%" y2="0%"><stop offset="-30%" stop-color="#aff6b3" stop-opacity="1"></stop><stop offset="130%" stop-color="#3ce866" stop-opacity="1"></stop></linearGradient></defs><defs><linearGradient id="grad2_2" x1="0%" y1="100%" x2="25%" y2="0%"><stop offset="-30%" stop-color="#aff6b3" stop-opacity="1"></stop><stop offset="130%" stop-color="#ffffff" stop-opacity="1"></stop></linearGradient></defs><g transform="translate(900, 225)"><path d="M-90 0C-86 -7.2 -82 -14.4 -78.2 -21C-74.5 -27.5 -71 -33.4 -66.7 -38.5C-62.4 -43.6 -57.4 -48 -53 -53C-48.7 -58.1 -45.1 -63.8 -40.5 -70.1C-35.9 -76.5 -30.2 -83.5 -23.3 -86.9C-16.4 -90.3 -8.2 -90.2 0 -90L0 0Z" fill="#d9fbd9"></path><path d="M-60 0C-57.3 -4.8 -54.7 -9.6 -52.2 -14C-49.7 -18.3 -47.3 -22.3 -44.5 -25.7C-41.6 -29.1 -38.2 -32 -35.4 -35.4C-32.5 -38.7 -30.1 -42.5 -27 -46.8C-23.9 -51 -20.1 -55.7 -15.5 -58C-10.9 -60.2 -5.5 -60.1 0 -60L0 0Z" fill="#80ef8d"></path><path d="M-30 0C-28.7 -2.4 -27.3 -4.8 -26.1 -7C-24.8 -9.2 -23.7 -11.1 -22.2 -12.8C-20.8 -14.5 -19.1 -16 -17.7 -17.7C-16.2 -19.4 -15 -21.3 -13.5 -23.4C-12 -25.5 -10.1 -27.8 -7.8 -29C-5.5 -30.1 -2.7 -30.1 0 -30L0 0Z" fill="#3ce866"></path></g><g transform="translate(0, 0)"><path d="M90 0C89.3 7.6 88.7 15.3 86.9 23.3C85.2 31.3 82.3 39.7 75.3 43.5C68.4 47.3 57.3 46.3 52.3 52.3C47.3 58.3 48.5 71.2 44 76.2C39.5 81.2 29.5 78.2 21.2 79.2C13 80.2 6.5 85.1 0 90L0 0Z" fill="#d9fbd9"></path><path d="M60 0C59.6 5.1 59.1 10.2 58 15.5C56.8 20.9 54.9 26.5 50.2 29C45.6 31.5 38.2 30.9 34.9 34.9C31.6 38.9 32.3 47.5 29.3 50.8C26.4 54.1 19.7 52.2 14.1 52.8C8.6 53.5 4.3 56.7 0 60L0 0Z" fill="#80ef8d"></path><path d="M30 0C29.8 2.5 29.6 5.1 29 7.8C28.4 10.4 27.4 13.2 25.1 14.5C22.8 15.8 19.1 15.4 17.4 17.4C15.8 19.4 16.2 23.7 14.7 25.4C13.2 27.1 9.8 26.1 7.1 26.4C4.3 26.7 2.2 28.4 0 30L0 0Z" fill="#3ce866"></path></g></svg>