<svg id="visual" viewBox="0 0 900 225" width="900" height="225" xmlns="http://www.w3.org/2000/svg" xmlns:xlink="http://www.w3.org/1999/xlink" version="1.1"><rect x="0" y="0" width="900" height="225" fill="#ffffff"></rect><defs><linearGradient id="grad1_0" x1="75%" y1="100%" x2="100%" y2="0%"><stop offset="-30%" stop-color="#e8853c" stop-opacity="1"></stop><stop offset="130%" stop-color="#e8853c" stop-opacity="1"></stop></linearGradient></defs><defs><linearGradient id="grad1_1" x1="75%" y1="100%" x2="100%" y2="0%"><stop offset="-30%" stop-color="#e8853c" stop-opacity="1"></stop><stop offset="130%" stop-color="#fcc19c" stop-opacity="1"></stop></linearGradient></defs><defs><linearGradient id="grad1_2" x1="75%" y1="100%" x2="100%" y2="0%"><stop offset="-30%" stop-color="#ffffff" stop-opacity="1"></stop><stop offset="130%" stop-color="#fcc19c" stop-opacity="1"></stop></linearGradient></defs><defs><linearGradient id="grad2_0" x1="0%" y1="100%" x2="25%" y2="0%"><stop offset="-30%" stop-color="#e8853c" stop-opacity="1"></stop><stop offset="130%" stop-color="#e8853c" stop-opacity="1"></stop></linearGradient></defs><defs><linearGradient id="grad2_1" x1="0%" y1="100%" x2="25%" y2="0%"><stop offset="-30%" stop-color="#fcc19c" stop-opacity="1"></stop><stop offset="130%" stop-color="#e8853c" stop-opacity="1"></stop></linearGradient></defs><defs><linearGradient id="grad2_2" x1="0%" y1="100%" x2="25%" y2="0%"><stop offset="-30%" stop-color="#fcc19c" stop-opacity="1"></stop><stop offset="130%" stop-color="#ffffff" stop-opacity="1"></stop></linearGradient></defs><g transform="translate(900, 225)"><path d="M-90 0C-87.9 -7.5 -85.8 -15 -84 -22.5C-82.3 -30 -80.9 -37.4 -77.9 -45C-75 -52.6 -70.5 -60.3 -62.9 -62.9C-55.4 -65.6 -44.7 -63.2 -37.5 -65C-30.3 -66.7 -26.4 -72.4 -20.7 -77.3C-15 -82.1 -7.5 -86.1 0 -90L0 0Z" fill="#ffe0cd"></path><path d="M-60 0C-58.6 -5 -57.2 -10 -56 -15C-54.9 -20 -53.9 -25 -52 -30C-50 -35 -47 -40.2 -42 -42C-36.9 -43.7 -29.8 -42.2 -25 -43.3C-20.2 -44.4 -17.6 -48.3 -13.8 -51.5C-10 -54.8 -5 -57.4 0 -60L0 0Z" fill="#f4a36c"></path><path d="M-30 0C-29.3 -2.5 -28.6 -5 -28 -7.5C-27.4 -10 -27 -12.5 -26 -15C-25 -17.5 -23.5 -20.1 -21 -21C-18.5 -21.9 -14.9 -21.1 -12.5 -21.7C-10.1 -22.2 -8.8 -24.1 -6.9 -25.8C-5 -27.4 -2.5 -28.7 0 -30L0 0Z" fill="#e8853c"></path></g><g transform="translate(0, 0)"><path d="M90 0C89.5 7.9 89 15.8 86.9 23.3C84.9 30.8 81.3 37.9 77.1 44.5C72.8 51.1 67.8 57.2 61.5 61.5C55.2 65.8 47.5 68.3 40.5 70.1C33.5 72 27.1 73.1 20.4 76.3C13.8 79.5 6.9 84.8 0 90L0 0Z" fill="#ffe0cd"></path><path d="M60 0C59.7 5.3 59.3 10.5 58 15.5C56.6 20.5 54.2 25.3 51.4 29.7C48.5 34.1 45.2 38.1 41 41C36.8 43.9 31.7 45.6 27 46.8C22.3 48 18.1 48.7 13.6 50.9C9.2 53 4.6 56.5 0 60L0 0Z" fill="#f4a36c"></path><path d="M30 0C29.8 2.6 29.7 5.3 29 7.8C28.3 10.3 27.1 12.6 25.7 14.8C24.3 17 22.6 19.1 20.5 20.5C18.4 21.9 15.8 22.8 13.5 23.4C11.2 24 9 24.4 6.8 25.4C4.6 26.5 2.3 28.3 0 30L0 0Z" fill="#e8853c"></path></g></svg>