<svg id="visual" viewBox="0 0 540 960" width="540" height="960" xmlns="http://www.w3.org/2000/svg" xmlns:xlink="http://www.w3.org/1999/xlink" version="1.1"><rect x="0" y="0" width="540" height="960" fill="#ffffff"></rect><defs><linearGradient id="grad1_0" x1="0%" y1="100%" x2="100%" y2="0%"><stop offset="30%" stop-color="#e8853c" stop-opacity="1"></stop><stop offset="70%" stop-color="#e8853c" stop-opacity="1"></stop></linearGradient></defs><defs><linearGradient id="grad1_1" x1="0%" y1="100%" x2="100%" y2="0%"><stop offset="30%" stop-color="#e8853c" stop-opacity="1"></stop><stop offset="70%" stop-color="#fcc19c" stop-opacity="1"></stop></linearGradient></defs><defs><linearGradient id="grad1_2" x1="0%" y1="100%" x2="100%" y2="0%"><stop offset="30%" stop-color="#ffffff" stop-opacity="1"></stop><stop offset="70%" stop-color="#fcc19c" stop-opacity="1"></stop></linearGradient></defs><defs><linearGradient id="grad2_0" x1="0%" y1="100%" x2="100%" y2="0%"><stop offset="30%" stop-color="#e8853c" stop-opacity="1"></stop><stop offset="70%" stop-color="#e8853c" stop-opacity="1"></stop></linearGradient></defs><defs><linearGradient id="grad2_1" x1="0%" y1="100%" x2="100%" y2="0%"><stop offset="30%" stop-color="#fcc19c" stop-opacity="1"></stop><stop offset="70%" stop-color="#e8853c" stop-opacity="1"></stop></linearGradient></defs><defs><linearGradient id="grad2_2" x1="0%" y1="100%" x2="100%" y2="0%"><stop offset="30%" stop-color="#fcc19c" stop-opacity="1"></stop><stop offset="70%" stop-color="#ffffff" stop-opacity="1"></stop></linearGradient></defs><g transform="translate(540, 960)"><path d="M-216 0C-197.6 -14.5 -179.2 -29 -176.8 -47.4C-174.3 -65.7 -187.7 -87.8 -187.1 -108C-186.4 -128.2 -171.6 -146.3 -152 -152C-132.5 -157.7 -108.3 -151 -92.5 -160.2C-76.7 -169.5 -69.4 -194.7 -55.4 -206.7C-41.4 -218.7 -20.7 -217.3 0 -216L0 0Z" fill="#ffe0cd"></path><path d="M-144 0C-131.7 -9.7 -119.5 -19.4 -117.8 -31.6C-116.2 -43.8 -125.2 -58.6 -124.7 -72C-124.3 -85.4 -114.4 -97.6 -101.4 -101.4C-88.3 -105.2 -72.2 -100.6 -61.7 -106.8C-51.1 -113 -46.3 -129.8 -36.9 -137.8C-27.6 -145.8 -13.8 -144.9 0 -144L0 0Z" fill="#f4a36c"></path><path d="M-72 0C-65.9 -4.8 -59.7 -9.7 -58.9 -15.8C-58.1 -21.9 -62.6 -29.3 -62.4 -36C-62.1 -42.7 -57.2 -48.8 -50.7 -50.7C-44.2 -52.6 -36.1 -50.3 -30.8 -53.4C-25.6 -56.5 -23.1 -64.9 -18.5 -68.9C-13.8 -72.9 -6.9 -72.4 0 -72L0 0Z" fill="#e8853c"></path></g><g transform="translate(0, 0)"><path d="M216 0C214.3 18.4 212.7 36.8 208.6 55.9C204.6 75.1 198.2 95 182.7 105.5C167.3 116 142.8 117.1 129.4 129.4C116 141.7 113.7 165.1 102.5 177.5C91.3 190 71.1 191.5 52.5 196.1C34 200.7 17 208.3 0 216L0 0Z" fill="#ffe0cd"></path><path d="M144 0C142.9 12.3 141.8 24.5 139.1 37.3C136.4 50 132.1 63.3 121.8 70.3C111.5 77.3 95.2 78.1 86.3 86.3C77.3 94.4 75.8 110.1 68.3 118.4C60.9 126.7 47.4 127.7 35 130.7C22.6 133.8 11.3 138.9 0 144L0 0Z" fill="#f4a36c"></path><path d="M72 0C71.4 6.1 70.9 12.3 69.5 18.6C68.2 25 66.1 31.7 60.9 35.2C55.8 38.7 47.6 39 43.1 43.1C38.7 47.2 37.9 55 34.2 59.2C30.4 63.3 23.7 63.8 17.5 65.4C11.3 66.9 5.7 69.4 0 72L0 0Z" fill="#e8853c"></path></g></svg>