<svg id="visual" viewBox="0 0 900 225" width="900" height="225" xmlns="http://www.w3.org/2000/svg" xmlns:xlink="http://www.w3.org/1999/xlink" version="1.1"><rect x="0" y="0" width="900" height="225" fill="#ffffff"></rect><defs><linearGradient id="grad1_0" x1="75%" y1="100%" x2="100%" y2="0%"><stop offset="-30%" stop-color="#a43ce8" stop-opacity="1"></stop><stop offset="130%" stop-color="#a43ce8" stop-opacity="1"></stop></linearGradient></defs><defs><linearGradient id="grad1_1" x1="75%" y1="100%" x2="100%" y2="0%"><stop offset="-30%" stop-color="#a43ce8" stop-opacity="1"></stop><stop offset="130%" stop-color="#d7a2f5" stop-opacity="1"></stop></linearGradient></defs><defs><linearGradient id="grad1_2" x1="75%" y1="100%" x2="100%" y2="0%"><stop offset="-30%" stop-color="#ffffff" stop-opacity="1"></stop><stop offset="130%" stop-color="#d7a2f5" stop-opacity="1"></stop></linearGradient></defs><defs><linearGradient id="grad2_0" x1="0%" y1="100%" x2="25%" y2="0%"><stop offset="-30%" stop-color="#a43ce8" stop-opacity="1"></stop><stop offset="130%" stop-color="#a43ce8" stop-opacity="1"></stop></linearGradient></defs><defs><linearGradient id="grad2_1" x1="0%" y1="100%" x2="25%" y2="0%"><stop offset="-30%" stop-color="#d7a2f5" stop-opacity="1"></stop><stop offset="130%" stop-color="#a43ce8" stop-opacity="1"></stop></linearGradient></defs><defs><linearGradient id="grad2_2" x1="0%" y1="100%" x2="25%" y2="0%"><stop offset="-30%" stop-color="#d7a2f5" stop-opacity="1"></stop><stop offset="130%" stop-color="#ffffff" stop-opacity="1"></stop></linearGradient></defs><g transform="translate(900, 225)"><path d="M-90 0C-87.9 -8 -85.9 -16 -81.1 -21.7C-76.4 -27.5 -69 -31.1 -66.7 -38.5C-64.3 -45.9 -67 -57.1 -63.6 -63.6C-60.3 -70.2 -50.8 -72.2 -43 -74.5C-35.2 -76.8 -28.9 -79.5 -22 -82.1C-15.1 -84.7 -7.5 -87.4 0 -90L0 0Z" fill="#edd0fb"></path><path d="M-60 0C-58.6 -5.3 -57.2 -10.6 -54.1 -14.5C-50.9 -18.3 -46 -20.7 -44.5 -25.7C-42.9 -30.6 -44.7 -38 -42.4 -42.4C-40.2 -46.8 -33.9 -48.1 -28.7 -49.7C-23.4 -51.2 -19.3 -53 -14.7 -54.7C-10.1 -56.5 -5 -58.2 0 -60L0 0Z" fill="#c072ef"></path><path d="M-30 0C-29.3 -2.7 -28.6 -5.3 -27 -7.2C-25.5 -9.2 -23 -10.4 -22.2 -12.8C-21.4 -15.3 -22.3 -19 -21.2 -21.2C-20.1 -23.4 -16.9 -24.1 -14.3 -24.8C-11.7 -25.6 -9.6 -26.5 -7.3 -27.4C-5 -28.2 -2.5 -29.1 0 -30L0 0Z" fill="#a43ce8"></path></g><g transform="translate(0, 0)"><path d="M90 0C90.9 8.6 91.8 17.3 86.9 23.3C82 29.3 71.4 32.7 65.8 38C60.3 43.3 59.9 50.5 56.6 56.6C53.3 62.7 47.1 67.7 40.5 70.1C33.9 72.6 27 72.5 20.2 75.3C13.4 78.2 6.7 84.1 0 90L0 0Z" fill="#edd0fb"></path><path d="M60 0C60.6 5.8 61.2 11.5 58 15.5C54.7 19.5 47.6 21.8 43.9 25.3C40.2 28.9 39.9 33.6 37.7 37.7C35.5 41.8 31.4 45.1 27 46.8C22.6 48.4 18 48.3 13.5 50.2C8.9 52.1 4.5 56.1 0 60L0 0Z" fill="#c072ef"></path><path d="M30 0C30.3 2.9 30.6 5.8 29 7.8C27.3 9.8 23.8 10.9 21.9 12.7C20.1 14.4 20 16.8 18.9 18.9C17.8 20.9 15.7 22.6 13.5 23.4C11.3 24.2 9 24.2 6.7 25.1C4.5 26.1 2.2 28 0 30L0 0Z" fill="#a43ce8"></path></g></svg>