<svg id="visual" viewBox="0 0 540 960" width="540" height="960" xmlns="http://www.w3.org/2000/svg" xmlns:xlink="http://www.w3.org/1999/xlink" version="1.1"><rect x="0" y="0" width="540" height="960" fill="#ffffff"></rect><defs><linearGradient id="grad1_0" x1="0%" y1="100%" x2="100%" y2="0%"><stop offset="30%" stop-color="#a43ce8" stop-opacity="1"></stop><stop offset="70%" stop-color="#a43ce8" stop-opacity="1"></stop></linearGradient></defs><defs><linearGradient id="grad1_1" x1="0%" y1="100%" x2="100%" y2="0%"><stop offset="30%" stop-color="#a43ce8" stop-opacity="1"></stop><stop offset="70%" stop-color="#d7a2f5" stop-opacity="1"></stop></linearGradient></defs><defs><linearGradient id="grad1_2" x1="0%" y1="100%" x2="100%" y2="0%"><stop offset="30%" stop-color="#ffffff" stop-opacity="1"></stop><stop offset="70%" stop-color="#d7a2f5" stop-opacity="1"></stop></linearGradient></defs><defs><linearGradient id="grad2_0" x1="0%" y1="100%" x2="100%" y2="0%"><stop offset="30%" stop-color="#a43ce8" stop-opacity="1"></stop><stop offset="70%" stop-color="#a43ce8" stop-opacity="1"></stop></linearGradient></defs><defs><linearGradient id="grad2_1" x1="0%" y1="100%" x2="100%" y2="0%"><stop offset="30%" stop-color="#d7a2f5" stop-opacity="1"></stop><stop offset="70%" stop-color="#a43ce8" stop-opacity="1"></stop></linearGradient></defs><defs><linearGradient id="grad2_2" x1="0%" y1="100%" x2="100%" y2="0%"><stop offset="30%" stop-color="#d7a2f5" stop-opacity="1"></stop><stop offset="70%" stop-color="#ffffff" stop-opacity="1"></stop></linearGradient></defs><g transform="translate(540, 960)"><path d="M-216 0C-202.9 -17.1 -189.9 -34.2 -179.7 -48.1C-169.5 -62.1 -162.1 -73 -161.1 -93C-160 -113 -165.3 -142.3 -152.7 -152.7C-140.2 -163.2 -109.8 -154.9 -90 -155.9C-70.2 -156.9 -61.1 -167.1 -47.9 -178.7C-34.7 -190.3 -17.3 -203.1 0 -216L0 0Z" fill="#edd0fb"></path><path d="M-144 0C-135.3 -11.4 -126.6 -22.8 -119.8 -32.1C-113 -41.4 -108.1 -48.6 -107.4 -62C-106.7 -75.4 -110.2 -94.8 -101.8 -101.8C-93.4 -108.8 -73.2 -103.3 -60 -103.9C-46.8 -104.6 -40.7 -111.4 -31.9 -119.1C-23.1 -126.8 -11.6 -135.4 0 -144L0 0Z" fill="#c072ef"></path><path d="M-72 0C-67.6 -5.7 -63.3 -11.4 -59.9 -16C-56.5 -20.7 -54 -24.3 -53.7 -31C-53.3 -37.7 -55.1 -47.4 -50.9 -50.9C-46.7 -54.4 -36.6 -51.6 -30 -52C-23.4 -52.3 -20.4 -55.7 -16 -59.6C-11.6 -63.4 -5.8 -67.7 0 -72L0 0Z" fill="#a43ce8"></path></g><g transform="translate(0, 0)"><path d="M216 0C209.8 18.3 203.6 36.7 196.1 52.5C188.6 68.4 179.7 81.8 173.2 100C166.7 118.2 162.5 141.1 146.4 146.4C130.2 151.7 102 139.3 86.5 149.8C71 160.4 68.2 193.8 55.9 208.6C43.6 223.5 21.8 219.7 0 216L0 0Z" fill="#edd0fb"></path><path d="M144 0C139.9 12.2 135.7 24.4 130.7 35C125.7 45.6 119.8 54.6 115.5 66.7C111.1 78.8 108.4 94.1 97.6 97.6C86.8 101.1 68 92.9 57.7 99.9C47.3 106.9 45.5 129.2 37.3 139.1C29.1 149 14.5 146.5 0 144L0 0Z" fill="#c072ef"></path><path d="M72 0C69.9 6.1 67.9 12.2 65.4 17.5C62.9 22.8 59.9 27.3 57.7 33.3C55.6 39.4 54.2 47 48.8 48.8C43.4 50.6 34 46.4 28.8 49.9C23.7 53.5 22.7 64.6 18.6 69.5C14.5 74.5 7.3 73.2 0 72L0 0Z" fill="#a43ce8"></path></g></svg>