<svg id="visual" viewBox="0 0 900 200" width="900" height="200" xmlns="http://www.w3.org/2000/svg" xmlns:xlink="http://www.w3.org/1999/xlink" version="1.1"><rect x="0" y="0" width="900" height="200" fill="#16151a"></rect><path d="M0 132L10 133C20 134 40 136 60 130.8C80 125.7 100 113.3 120 110.2C140 107 160 113 180 111.5C200 110 220 101 240 103.7C260 106.3 280 120.7 300 126.8C320 133 340 131 360 130.5C380 130 400 131 420 133.3C440 135.7 460 139.3 480 140.3C500 141.3 520 139.7 540 138.2C560 136.7 580 135.3 600 133.3C620 131.3 640 128.7 660 125.8C680 123 700 120 720 120.5C740 121 760 125 780 121.8C800 118.7 820 108.3 840 101.8C860 95.3 880 92.7 890 91.3L900 90L900 0L890 0C880 0 860 0 840 0C820 0 800 0 780 0C760 0 740 0 720 0C700 0 680 0 660 0C640 0 620 0 600 0C580 0 560 0 540 0C520 0 500 0 480 0C460 0 440 0 420 0C400 0 380 0 360 0C340 0 320 0 300 0C280 0 260 0 240 0C220 0 200 0 180 0C160 0 140 0 120 0C100 0 80 0 60 0C40 0 20 0 10 0L0 0Z" fill="#2e2c37"></path><path d="M0 61L10 65.3C20 69.7 40 78.3 60 79.5C80 80.7 100 74.3 120 71C140 67.7 160 67.3 180 66.5C200 65.7 220 64.3 240 70.5C260 76.7 280 90.3 300 95.5C320 100.7 340 97.3 360 94.5C380 91.7 400 89.3 420 85.2C440 81 460 75 480 73.5C500 72 520 75 540 80.5C560 86 580 94 600 92.2C620 90.3 640 78.7 660 71.3C680 64 700 61 720 62.8C740 64.7 760 71.3 780 73.8C800 76.3 820 74.7 840 76.2C860 77.7 880 82.3 890 84.7L900 87L900 0L890 0C880 0 860 0 840 0C820 0 800 0 780 0C760 0 740 0 720 0C700 0 680 0 660 0C640 0 620 0 600 0C580 0 560 0 540 0C520 0 500 0 480 0C460 0 440 0 420 0C400 0 380 0 360 0C340 0 320 0 300 0C280 0 260 0 240 0C220 0 200 0 180 0C160 0 140 0 120 0C100 0 80 0 60 0C40 0 20 0 10 0L0 0Z" fill="#8f8e95"></path><path d="M0 57L10 57.3C20 57.7 40 58.3 60 59.3C80 60.3 100 61.7 120 63.3C140 65 160 67 180 62.3C200 57.7 220 46.3 240 43C260 39.7 280 44.3 300 45C320 45.7 340 42.3 360 42C380 41.7 400 44.3 420 44.2C440 44 460 41 480 40.8C500 40.7 520 43.3 540 48.2C560 53 580 60 600 60.3C620 60.7 640 54.3 660 50.7C680 47 700 46 720 47.5C740 49 760 53 780 54.8C800 56.7 820 56.3 840 54.3C860 52.3 880 48.7 890 46.8L900 45L900 0L890 0C880 0 860 0 840 0C820 0 800 0 780 0C760 0 740 0 720 0C700 0 680 0 660 0C640 0 620 0 600 0C580 0 560 0 540 0C520 0 500 0 480 0C460 0 440 0 420 0C400 0 380 0 360 0C340 0 320 0 300 0C280 0 260 0 240 0C220 0 200 0 180 0C160 0 140 0 120 0C100 0 80 0 60 0C40 0 20 0 10 0L0 0Z" fill="#ffffff"></path></svg>