<svg id="visual" viewBox="0 0 540 960" width="540" height="960" xmlns="http://www.w3.org/2000/svg" xmlns:xlink="http://www.w3.org/1999/xlink" version="1.1"><rect x="0" y="0" width="540" height="960" fill="#ffffff"></rect><defs><linearGradient id="grad1_0" x1="0%" y1="100%" x2="100%" y2="0%"><stop offset="30%" stop-color="#e83c75" stop-opacity="1"></stop><stop offset="70%" stop-color="#e83c75" stop-opacity="1"></stop></linearGradient></defs><defs><linearGradient id="grad1_1" x1="0%" y1="100%" x2="100%" y2="0%"><stop offset="30%" stop-color="#e83c75" stop-opacity="1"></stop><stop offset="70%" stop-color="#fca6b7" stop-opacity="1"></stop></linearGradient></defs><defs><linearGradient id="grad1_2" x1="0%" y1="100%" x2="100%" y2="0%"><stop offset="30%" stop-color="#ffffff" stop-opacity="1"></stop><stop offset="70%" stop-color="#fca6b7" stop-opacity="1"></stop></linearGradient></defs><defs><linearGradient id="grad2_0" x1="0%" y1="100%" x2="100%" y2="0%"><stop offset="30%" stop-color="#e83c75" stop-opacity="1"></stop><stop offset="70%" stop-color="#e83c75" stop-opacity="1"></stop></linearGradient></defs><defs><linearGradient id="grad2_1" x1="0%" y1="100%" x2="100%" y2="0%"><stop offset="30%" stop-color="#fca6b7" stop-opacity="1"></stop><stop offset="70%" stop-color="#e83c75" stop-opacity="1"></stop></linearGradient></defs><defs><linearGradient id="grad2_2" x1="0%" y1="100%" x2="100%" y2="0%"><stop offset="30%" stop-color="#fca6b7" stop-opacity="1"></stop><stop offset="70%" stop-color="#ffffff" stop-opacity="1"></stop></linearGradient></defs><g transform="translate(540, 960)"><path d="M-216 0C-199 -15.4 -182.1 -30.7 -176.8 -47.4C-171.5 -64 -177.8 -81.9 -177.5 -102.5C-177.3 -123.1 -170.3 -146.5 -152.7 -152.7C-135.1 -158.9 -106.9 -148 -90 -155.9C-73.1 -163.8 -67.7 -190.6 -54.6 -203.8C-41.5 -217 -20.8 -216.5 0 -216L0 0Z" fill="#ffd3db"></path><path d="M-144 0C-132.7 -10.2 -121.4 -20.5 -117.8 -31.6C-114.3 -42.7 -118.5 -54.6 -118.4 -68.3C-118.2 -82.1 -113.6 -97.7 -101.8 -101.8C-90.1 -106 -71.2 -98.6 -60 -103.9C-48.8 -109.2 -45.1 -127.1 -36.4 -135.9C-27.7 -144.7 -13.8 -144.3 0 -144L0 0Z" fill="#f47695"></path><path d="M-72 0C-66.3 -5.1 -60.7 -10.2 -58.9 -15.8C-57.2 -21.3 -59.3 -27.3 -59.2 -34.2C-59.1 -41 -56.8 -48.8 -50.9 -50.9C-45 -53 -35.6 -49.3 -30 -52C-24.4 -54.6 -22.6 -63.5 -18.2 -67.9C-13.8 -72.3 -6.9 -72.2 0 -72L0 0Z" fill="#e83c75"></path></g><g transform="translate(0, 0)"><path d="M216 0C217.5 20.7 219 41.4 208.6 55.9C198.2 70.4 175.9 78.8 166.3 96C156.6 113.2 159.6 139.1 146.4 146.4C133.2 153.7 103.7 142.4 87 150.7C70.3 159 66.2 186.8 53.8 200.9C41.4 215.1 20.7 215.5 0 216L0 0Z" fill="#ffd3db"></path><path d="M144 0C145 13.8 146 27.6 139.1 37.3C132.2 47 117.3 52.6 110.9 64C104.4 75.4 106.4 92.7 97.6 97.6C88.8 102.5 69.2 94.9 58 100.5C46.8 106 44.1 124.5 35.9 133.9C27.6 143.4 13.8 143.7 0 144L0 0Z" fill="#f47695"></path><path d="M72 0C72.5 6.9 73 13.8 69.5 18.6C66.1 23.5 58.6 26.3 55.4 32C52.2 37.7 53.2 46.4 48.8 48.8C44.4 51.2 34.6 47.5 29 50.2C23.4 53 22.1 62.3 17.9 67C13.8 71.7 6.9 71.8 0 72L0 0Z" fill="#e83c75"></path></g></svg>